<svg xmlns="http://www.w3.org/2000/svg" version="1.1" xmlns:xlink="http://www.w3.org/1999/xlink" xmlns:svgjs="http://svgjs.dev/svgjs" width="1000" height="1000" viewBox="0 0 1000 1000"><rect width="1000" height="1000" fill="#ffffff"></rect><g transform="matrix(0.7,0,0,0.7,150.00008034241097,106.25)"><svg viewBox="0 0 320 360" data-background-color="#ffffff" preserveAspectRatio="xMidYMid meet" height="1125" width="1000" xmlns="http://www.w3.org/2000/svg" xmlns:xlink="http://www.w3.org/1999/xlink"><g id="tight-bounds" transform="matrix(1,0,0,1,-0.00003672795929787753,0)"><svg viewBox="0 0 320 360" height="360" width="320"><g><svg></svg></g><g><svg viewBox="0 0 320 360" height="360" width="320"><g><path transform="translate(-32.1528,-12.1528) scale(3.84303,3.84303)" d="M88.492 50l1.711-2.963c2.946-5.102 1.198-11.626-3.904-14.572l-2.963-1.711v-3.422c0-5.891-4.776-10.667-10.667-10.667h-3.422l-1.711-2.963c-2.946-5.102-9.47-6.85-14.572-3.904l-2.964 1.71-2.963-1.711c-5.102-2.945-11.626-1.197-14.572 3.905l-1.711 2.963h-3.422c-5.891 0-10.667 4.776-10.667 10.667v3.422l-2.963 1.711c-5.102 2.946-6.85 9.47-3.904 14.572l1.71 2.963-1.711 2.963c-2.945 5.102-1.197 11.626 3.905 14.572l2.963 1.711v3.422c0 5.891 4.776 10.667 10.667 10.667h3.422l1.711 2.963c2.946 5.102 9.47 6.85 14.572 3.904l2.963-1.71 2.963 1.711c5.102 2.946 11.626 1.198 14.572-3.904l1.711-2.963h3.422c5.891 0 10.667-4.776 10.667-10.667v-3.422l2.963-1.711c5.102-2.946 6.85-9.47 3.904-14.572zM85.832 33.273c2.252 1.3 3.862 3.399 4.535 5.91 0.673 2.511 0.328 5.135-0.972 7.386l-1.441 2.497-4.618-7.999v-9.236zM73.72 73.72l-15.038 8.682h-17.364l-15.038-8.682-8.682-15.038v-17.364l8.682-15.038 15.038-8.682h17.364l15.038 8.682 8.682 15.038v17.364zM82.401 60.549v8.158l-7.065 4.079zM72.786 75.336l-4.079 7.065h-8.158zM57.065 83.335l-7.065 4.079-7.065-4.079zM39.451 82.401h-8.158l-4.079-7.065zM24.664 72.786l-7.065-4.079v-8.158zM16.665 57.065l-4.079-7.065 4.079-7.065zM17.599 39.451v-8.158l7.065-4.079zM27.214 24.664l4.079-7.065h8.158zM42.935 16.665l7.065-4.079 7.065 4.079zM60.549 17.599h8.158l4.079 7.065zM75.336 27.214l7.065 4.079v8.158zM83.335 42.935l4.079 7.065-4.079 7.065zM72.668 17.599c2.6 0 5.044 1.012 6.883 2.851 1.838 1.838 2.851 4.283 2.851 6.883v2.883l-7.999-4.618-4.618-7.999zM53.43 10.606c2.252-1.3 4.875-1.645 7.386-0.972 2.511 0.673 4.61 2.284 5.91 4.535l1.441 2.497h-9.236l-7.999-4.618zM33.273 14.168c1.3-2.252 3.399-3.862 5.91-4.535 2.511-0.673 5.135-0.328 7.386 0.972l2.497 1.441-7.999 4.618h-9.236zM17.599 27.332c0-2.6 1.012-5.044 2.851-6.883 1.838-1.838 4.283-2.851 6.883-2.851h2.883l-4.618 7.999-7.999 4.618zM10.606 46.57c-1.3-2.252-1.645-4.875-0.972-7.386 0.673-2.511 2.284-4.61 4.535-5.91l2.497-1.441v9.236l-4.618 7.999zM14.168 66.727c-2.252-1.3-3.862-3.399-4.535-5.91-0.673-2.511-0.328-5.135 0.972-7.386l1.441-2.497 4.618 7.999v9.236zM27.332 82.401c-2.6 0-5.044-1.012-6.883-2.851-1.838-1.838-2.851-4.283-2.851-6.883v-2.883l7.999 4.618 4.618 7.999zM46.57 89.394c-2.252 1.3-4.875 1.645-7.386 0.972-2.511-0.673-4.61-2.284-5.91-4.535l-1.441-2.497h9.236l7.999 4.618zM66.727 85.832c-1.3 2.252-3.399 3.862-5.91 4.535-2.511 0.673-5.135 0.328-7.386-0.972l-2.497-1.441 7.999-4.618h9.236zM82.401 72.668c0 2.6-1.012 5.044-2.851 6.883-1.838 1.838-4.283 2.851-6.883 2.851h-2.883l4.618-7.999 7.999-4.618zM90.367 60.816c-0.673 2.511-2.284 4.61-4.535 5.91l-2.497 1.441v-9.236l4.618-7.999 1.441 2.497c1.3 2.253 1.646 4.876 0.973 7.387z" fill="#162cf8" fill-rule="nonzero" stroke="none" stroke-width="1" stroke-linecap="butt" stroke-linejoin="miter" stroke-miterlimit="10" stroke-dasharray="" stroke-dashoffset="0" font-family="none" font-weight="none" font-size="none" text-anchor="none" style="mix-blend-mode: normal" data-fill-palette-color="tertiary"></path></g><g transform="matrix(1,0,0,1,64,121.30239850728671)"><svg viewBox="0 0 192 117.39520298542658" height="117.39520298542658" width="192"><g><svg viewBox="0 0 192 117.39520298542658" height="117.39520298542658" width="192"><g transform="matrix(1,0,0,1,0,85.77320907890461)"><svg viewBox="0 0 192 31.62199390652197" height="31.62199390652197" width="192"><g id="textblocktransform"><svg viewBox="0 0 192 31.62199390652197" height="31.62199390652197" width="192" id="textblock"><g><svg viewBox="0 0 192 31.62199390652197" height="31.62199390652197" width="192"><g transform="matrix(1,0,0,1,0,0)"><svg width="192" viewBox="-1.935439999999999 -33.26615 281.07084999999995 46.29177000000001" height="31.62199390652197" data-palette-color="#162cf8"><path d="M25.254-26.107l0.539 3.812-11.307 1.599 4.431 31.348-4.604 0.651-4.432-31.349-11.278 1.595-0.538-3.812zM52.783-13.798l0.421 3.806-15.296 1.694 1.384 12.504 17.772-1.968 0.421 3.807-22.423 2.483-3.908-35.295 22.184-2.456 0.424 3.826-17.533 1.942 1.257 11.351zM83.535 4.071l-8.785-13.733-8.326 0.644 1.109 14.327-4.686 0.363-2.739-35.404 11.715-0.907c3.988-0.309 7.129 0.361 9.423 2.009 2.287 1.648 3.565 4.207 3.833 7.677v0c0.171 2.207-0.279 4.174-1.348 5.902-1.063 1.727-2.624 3.078-4.682 4.053v0l9.479 14.392 0.022 0.289zM65.091-26.256l1.039 13.429 7.178-0.555c2.32-0.179 4.118-0.924 5.394-2.233 1.277-1.302 1.837-2.961 1.681-4.974v0c-0.169-2.187-0.95-3.815-2.343-4.884-1.399-1.062-3.33-1.508-5.791-1.337v0zM116.04 2.635l-3.761-9.126-14.868 0.6-2.963 9.397-4.826 0.195 12.118-36.028 4.096-0.165 15.01 34.933zM104.021-26.634l-5.346 16.839 12.06-0.486zM152.231-33.266l0.233 35.509-4.7 0.031-18.059-27.252 0.18 27.37-4.71 0.03-0.234-35.509 4.71-0.031 18.111 27.372-0.181-27.49zM187.046-14.306l-0.426 13.013c-1.256 1.686-2.977 2.921-5.164 3.703-2.18 0.782-4.699 1.127-7.558 1.033v0c-2.892-0.095-5.438-0.858-7.639-2.291-2.194-1.433-3.864-3.418-5.008-5.957-1.151-2.546-1.685-5.468-1.604-8.767v0l0.101-3.098c0.175-5.344 1.556-9.447 4.145-12.311 2.588-2.857 6.141-4.211 10.659-4.064v0c3.705 0.121 6.655 1.165 8.852 3.131 2.204 1.966 3.498 4.697 3.884 8.192v0l-4.677-0.153c-0.726-4.726-3.444-7.166-8.155-7.321v0c-3.138-0.103-5.553 0.922-7.245 3.075-1.684 2.146-2.605 5.308-2.761 9.484v0l-0.095 2.899c-0.13 3.985 0.676 7.179 2.418 9.584 1.749 2.412 4.172 3.668 7.27 3.77v0c1.759 0.058 3.301-0.089 4.627-0.439 1.332-0.343 2.443-0.964 3.333-1.862v0l0.261-7.976-8.216-0.269 0.125-3.798zM216.67 5.543l-2.711-9.491-14.841-1.076-4.002 9.005-4.817-0.35 16.092-34.436 4.089 0.296 10.987 36.4zM208.017-24.892l-7.205 16.131 12.039 0.873zM246.864-27.198l-3.802 35.306-4.663-0.502 3.802-35.306zM274.371 12.367l-2.089-9.647-14.74-2.037-4.578 8.725-4.784-0.662 18.294-33.318 4.062 0.561 8.599 37.037zM267.714-18.566l-8.238 15.629 11.956 1.653z" opacity="1" transform="matrix(1,0,0,1,0,0)" fill="#162cf8" class="undefined-text-0" data-fill-palette-color="primary" id="text-0"></path></svg></g></svg></g></svg></g></svg></g><g transform="matrix(1,0,0,1,57.6267103944356,0)"><svg viewBox="0 0 76.7465792111288 76.7465792111288" height="76.7465792111288" width="76.7465792111288"><g><svg xmlns="http://www.w3.org/2000/svg" xmlns:xlink="http://www.w3.org/1999/xlink" version="1.1" x="0" y="0" viewBox="0 0 64 64" style="enable-background:new 0 0 64 64;" xml:space="preserve" height="76.7465792111288" width="76.7465792111288" class="icon-icon-0" data-fill-palette-color="accent" id="icon-0"><g fill="#f63d15" data-fill-palette-color="accent"><path d="M50.995 41.1L53 21C53 9.42 43.58 0 32 0c-6.191 0-11.747 2.709-15.593 7H12v2h2.809c-2.391 3.424-3.806 7.589-3.805 12.1l2 20c0.018 0.181 0.085 0.354 0.195 0.5l12 16c0.188 0.252 0.485 0.4 0.8 0.4h12c0.315 0 0.611-0.148 0.8-0.4l12-16C50.91 41.454 50.977 41.281 50.995 41.1zM37.5 56h-11L14.967 40.623 13 21c0-4.548 1.61-8.726 4.285-12h12.301l-1.293 1.293 1.414 1.414 3-3c0.391-0.391 0.391-1.023 0-1.414l-3-3-1.414 1.414L29.586 7H19.2c3.381-3.094 7.867-5 12.8-5 10.477 0 19 8.523 19.005 18.9l-1.972 19.723L37.5 56z" fill="#f63d15" data-fill-palette-color="accent"></path><path d="M40 12c-4.288 0-8.59 5.144-8.771 5.363C30.163 18.653 26.786 22 24 22c-3.038 0-5-1.57-5-4s1.962-4 5-4c1.88 0 3.941 1.48 5.339 2.721l1.328-1.495C29.01 13.754 26.508 12 24 12c-4.122 0-7 2.467-7 6s2.878 6 7 6c4.288 0 8.59-5.144 8.771-5.363C33.837 17.347 37.214 14 40 14c3.038 0 5 1.57 5 4s-1.962 4-5 4c-1.877 0-3.938-1.478-5.335-2.718l-1.327 1.496C34.994 22.248 37.495 24 40 24c4.122 0 7-2.467 7-6S44.122 12 40 12z" fill="#f63d15" data-fill-palette-color="accent"></path><path d="M0.628 62.071C0.249 62.224 0 62.591 0 63v1h2v-0.323l19.372-7.749-0.743-1.857L0.628 62.071z" fill="#f63d15" data-fill-palette-color="accent"></path><path d="M63.372 62.071l-20-8-0.743 1.857L62 63.677V64h2v-1C64 62.591 63.751 62.224 63.372 62.071z" fill="#f63d15" data-fill-palette-color="accent"></path><path d="M31.293 23.293l-3 3 1.414 1.414L31 26.414V34h2v-7.586l1.293 1.293 1.414-1.414-3-3C32.316 22.902 31.684 22.902 31.293 23.293z" fill="#f63d15" data-fill-palette-color="accent"></path><path d="M7.293 16.293l1.414 1.414 3-3c0.391-0.391 0.391-1.023 0-1.414l-3-3-1.414 1.414L8.586 13H4v2h4.586L7.293 16.293z" fill="#f63d15" data-fill-palette-color="accent"></path><path d="M3.293 30.293l1.414 1.414 3-3c0.391-0.391 0.391-1.023 0-1.414l-3-3-1.414 1.414L4.586 27H0v2h4.586L3.293 30.293z" fill="#f63d15" data-fill-palette-color="accent"></path><path d="M52.293 7.707l1.414-1.414L52.414 5H56V3h-3.586l1.293-1.293-1.414-1.414-3 3c-0.391 0.391-0.391 1.023 0 1.414L52.293 7.707z" fill="#f63d15" data-fill-palette-color="accent"></path><path d="M59.707 35.707l-1.414-1.414-3 3c-0.391 0.391-0.391 1.023 0 1.414l3 3 1.414-1.414L58.414 39H64v-2h-5.586L59.707 35.707z" fill="#f63d15" data-fill-palette-color="accent"></path><path d="M53.293 20.707l3 3 1.414-1.414L56.414 21H62v-2h-5.586l1.293-1.293-1.414-1.414-3 3C52.902 19.684 52.902 20.316 53.293 20.707z" fill="#f63d15" data-fill-palette-color="accent"></path><rect y="13" width="2" height="2" fill="#f63d15" data-fill-palette-color="accent"></rect><rect x="8" y="7" width="2" height="2" fill="#f63d15" data-fill-palette-color="accent"></rect><rect x="4" y="7" width="2" height="2" fill="#f63d15" data-fill-palette-color="accent"></rect><rect x="58" y="3" width="2" height="2" fill="#f63d15" data-fill-palette-color="accent"></rect><rect x="62" y="3" width="2" height="2" fill="#f63d15" data-fill-palette-color="accent"></rect><rect y="7" width="2" height="2" fill="#f63d15" data-fill-palette-color="accent"></rect><rect x="5" y="1" width="8" height="2" fill="#f63d15" data-fill-palette-color="accent"></rect><rect x="15" y="1" width="2" height="2" fill="#f63d15" data-fill-palette-color="accent"></rect><rect x="4" y="18" width="2" height="2" fill="#f63d15" data-fill-palette-color="accent"></rect><rect y="18" width="2" height="2" fill="#f63d15" data-fill-palette-color="accent"></rect><rect x="31" y="36" width="2" height="2" fill="#f63d15" data-fill-palette-color="accent"></rect><rect x="31" y="40" width="2" height="2" fill="#f63d15" data-fill-palette-color="accent"></rect><rect x="31" y="44" width="2" height="2" fill="#f63d15" data-fill-palette-color="accent"></rect><path d="M39.293 26.293l-3 3 1.414 1.414L39 29.414V37h2v-7.586l1.293 1.293 1.414-1.414-3-3C40.316 25.902 39.684 25.902 39.293 26.293z" fill="#f63d15" data-fill-palette-color="accent"></path><rect x="39" y="39" width="2" height="2" fill="#f63d15" data-fill-palette-color="accent"></rect><rect x="39" y="43" width="2" height="2" fill="#f63d15" data-fill-palette-color="accent"></rect><path d="M23.293 26.293l-3 3 1.414 1.414L23 29.414V37h2v-7.586l1.293 1.293 1.414-1.414-3-3C24.316 25.902 23.684 25.902 23.293 26.293z" fill="#f63d15" data-fill-palette-color="accent"></path><rect x="23" y="39" width="2" height="2" fill="#f63d15" data-fill-palette-color="accent"></rect><rect x="23" y="43" width="2" height="2" fill="#f63d15" data-fill-palette-color="accent"></rect></g></svg></g></svg></g><g></g></svg></g></svg></g></svg></g><defs></defs></svg><rect width="320" height="360" fill="none" stroke="none" visibility="hidden"></rect></g></svg></g></svg>